<svg height="512" viewBox="0 0 128 128" width="512" xmlns="http://www.w3.org/2000/svg"><rect fill="#fcf9f0" height="124.5" rx="4" width="124.5" x="1.75" y="1.747"/><path d="m116.242 83h-29.742v-38h29.742a1.75 1.75 0 0 0 0-3.5h-29.742v-29.745a1.75 1.75 0 1 0 -3.5 0v29.745h-38v-29.745a1.75 1.75 0 0 0 -3.5 0v29.745h-29.742a1.75 1.75 0 1 0 0 3.5h29.742v38h-29.742a1.75 1.75 0 1 0 0 3.5h29.742v29.742a1.75 1.75 0 0 0 3.5 0v-29.742h38v29.742a1.75 1.75 0 0 0 3.5 0v-29.742h29.742a1.75 1.75 0 0 0 0-3.5zm-71.242 0v-38h38v38z" fill="#efe1cb"/><g fill="#e80054"><rect height="21.5" rx="6" width="21.5" x="11.75" y="11.747"/><rect height="21.5" rx="6" width="21.5" x="94.75" y="11.747"/><rect height="21.5" rx="6" width="21.5" x="53.25" y="53.247"/><rect height="21.5" rx="6" width="21.5" x="11.75" y="94.747"/></g><g fill="#8eef5b"><path d="m75.987 10.51a1.748 1.748 0 0 0 -2.474 0l-9.513 9.513-9.513-9.513a1.749 1.749 0 0 0 -2.474 2.474l9.512 9.516-9.512 9.51a1.749 1.749 0 1 0 2.474 2.474l9.513-9.512 9.513 9.512a1.749 1.749 0 1 0 2.474-2.474l-9.512-9.51 9.512-9.513a1.748 1.748 0 0 0 0-2.477z"/><path d="m34.487 52.013a1.748 1.748 0 0 0 -2.474 0l-9.513 9.512-9.513-9.512a1.749 1.749 0 0 0 -2.474 2.474l9.512 9.513-9.512 9.513a1.749 1.749 0 1 0 2.474 2.474l9.513-9.512 9.513 9.512a1.749 1.749 0 0 0 2.474-2.474l-9.512-9.513 9.512-9.513a1.748 1.748 0 0 0 0-2.474z"/><path d="m75.987 93.51a1.748 1.748 0 0 0 -2.474 0l-9.513 9.513-9.513-9.513a1.749 1.749 0 0 0 -2.474 2.474l9.512 9.513-9.512 9.513a1.749 1.749 0 1 0 2.474 2.474l9.513-9.512 9.513 9.512a1.749 1.749 0 0 0 2.474-2.474l-9.512-9.51 9.512-9.513a1.748 1.748 0 0 0 0-2.477z"/><path d="m117.487 93.51a1.748 1.748 0 0 0 -2.474 0l-9.513 9.513-9.513-9.513a1.749 1.749 0 0 0 -2.474 2.474l9.512 9.513-9.512 9.513a1.749 1.749 0 1 0 2.474 2.474l9.513-9.512 9.513 9.512a1.749 1.749 0 0 0 2.474-2.474l-9.512-9.513 9.512-9.513a1.748 1.748 0 0 0 0-2.474z"/><path d="m107.975 64 9.512-9.513a1.749 1.749 0 1 0 -2.474-2.474l-9.513 9.512-9.513-9.512a1.749 1.749 0 0 0 -2.474 2.474l9.512 9.513-9.512 9.513a1.749 1.749 0 1 0 2.474 2.474l9.513-9.512 9.513 9.512a1.749 1.749 0 0 0 2.474-2.474z"/></g><path d="m122.25 0h-64a1.75 1.75 0 0 0 0 3.5h64a2.253 2.253 0 0 1 2.25 2.25v116.5a2.253 2.253 0 0 1 -2.25 2.25h-116.5a2.252 2.252 0 0 1 -2.25-2.25v-116.503a2.252 2.252 0 0 1 2.25-2.247h13.875a1.75 1.75 0 0 0 0-3.5h-13.875a5.757 5.757 0 0 0 -5.75 5.747v116.5a5.757 5.757 0 0 0 5.75 5.753h116.5a5.757 5.757 0 0 0 5.75-5.75v-116.503a5.757 5.757 0 0 0 -5.75-5.747z"/><path d="m34.625 3.5h8.625a1.75 1.75 0 0 0 0-3.5h-8.625a1.75 1.75 0 0 0 0 3.5z"/><path d="m84.75 10.005a1.75 1.75 0 0 0 -1.75 1.75v29.745h-38v-29.745a1.75 1.75 0 0 0 -3.5 0v29.745h-29.742a1.75 1.75 0 1 0 0 3.5h29.742v38h-29.742a1.75 1.75 0 1 0 0 3.5h29.742v29.742a1.75 1.75 0 0 0 3.5 0v-29.742h38v29.742a1.75 1.75 0 0 0 3.5 0v-29.742h29.742a1.75 1.75 0 0 0 0-3.5h-29.742v-38h29.742a1.75 1.75 0 0 0 0-3.5h-29.742v-29.745a1.75 1.75 0 0 0 -1.75-1.75zm-1.75 72.995h-38v-38h38z"/><path d="m10 17.747v9.5a7.759 7.759 0 0 0 7.75 7.753h9.5a7.759 7.759 0 0 0 7.75-7.753v-9.5a7.759 7.759 0 0 0 -7.75-7.747h-9.5a7.759 7.759 0 0 0 -7.75 7.747zm21.5 0v9.5a4.255 4.255 0 0 1 -4.25 4.25h-9.5a4.255 4.255 0 0 1 -4.25-4.25v-9.5a4.255 4.255 0 0 1 4.25-4.25h9.5a4.255 4.255 0 0 1 4.25 4.25z"/><path d="m110.25 35a7.759 7.759 0 0 0 7.75-7.75v-9.5a7.759 7.759 0 0 0 -7.75-7.75h-9.5a7.759 7.759 0 0 0 -7.75 7.747v9.5a7.759 7.759 0 0 0 7.75 7.753zm-13.75-7.753v-9.5a4.255 4.255 0 0 1 4.25-4.25h9.5a4.255 4.255 0 0 1 4.25 4.25v9.5a4.255 4.255 0 0 1 -4.25 4.25h-9.5a4.255 4.255 0 0 1 -4.25-4.25z"/><path d="m59.25 76.5h9.5a7.759 7.759 0 0 0 7.75-7.75v-9.5a7.759 7.759 0 0 0 -7.75-7.75h-9.5a7.759 7.759 0 0 0 -7.75 7.75v9.5a7.759 7.759 0 0 0 7.75 7.75zm-4.25-17.253a4.255 4.255 0 0 1 4.25-4.247h9.5a4.255 4.255 0 0 1 4.25 4.247v9.5a4.255 4.255 0 0 1 -4.25 4.253h-9.5a4.255 4.255 0 0 1 -4.25-4.253z"/><path d="m17.75 96.5h9.5a4.255 4.255 0 0 1 4.25 4.25 1.75 1.75 0 1 0 3.5 0 7.759 7.759 0 0 0 -7.75-7.75h-9.5a7.759 7.759 0 0 0 -7.75 7.75v9.5a7.759 7.759 0 0 0 7.75 7.75h9.5a1.75 1.75 0 1 0 0-3.5h-9.5a4.255 4.255 0 0 1 -4.25-4.25v-9.5a4.255 4.255 0 0 1 4.25-4.25z"/><path d="m52.013 34.484a1.748 1.748 0 0 0 2.474 0l9.513-9.512 9.513 9.512a1.749 1.749 0 1 0 2.474-2.474l-9.512-9.51 9.512-9.513a1.749 1.749 0 1 0 -2.474-2.474l-9.513 9.51-9.513-9.513a1.749 1.749 0 0 0 -2.474 2.474l9.512 9.516-9.512 9.51a1.748 1.748 0 0 0 0 2.474z"/><path d="m10.513 75.987a1.748 1.748 0 0 0 2.474 0l9.513-9.512 9.513 9.512a1.749 1.749 0 0 0 2.474-2.474l-9.512-9.513 9.512-9.513a1.749 1.749 0 0 0 -2.474-2.474l-9.513 9.512-9.513-9.512a1.749 1.749 0 0 0 -2.474 2.474l9.512 9.513-9.512 9.513a1.748 1.748 0 0 0 0 2.474z"/><path d="m75.987 93.51a1.748 1.748 0 0 0 -2.474 0l-9.513 9.513-9.513-9.513a1.749 1.749 0 0 0 -2.474 2.474l9.512 9.513-9.512 9.513a1.749 1.749 0 1 0 2.474 2.474l9.513-9.512 9.513 9.512a1.749 1.749 0 0 0 2.474-2.474l-9.512-9.51 9.512-9.513a1.748 1.748 0 0 0 0-2.477z"/><path d="m117.487 93.51a1.748 1.748 0 0 0 -2.474 0l-9.513 9.513-9.513-9.513a1.749 1.749 0 0 0 -2.474 2.474l9.512 9.513-9.512 9.513a1.749 1.749 0 1 0 2.474 2.474l9.513-9.512 9.513 9.512a1.749 1.749 0 0 0 2.474-2.474l-9.512-9.513 9.512-9.513a1.748 1.748 0 0 0 0-2.474z"/><path d="m117.487 52.013a1.748 1.748 0 0 0 -2.474 0l-9.513 9.512-9.513-9.512a1.749 1.749 0 0 0 -2.474 2.474l9.512 9.513-9.512 9.513a1.749 1.749 0 1 0 2.474 2.474l9.513-9.512 9.513 9.512a1.749 1.749 0 0 0 2.474-2.474l-9.512-9.513 9.512-9.513a1.748 1.748 0 0 0 0-2.474z"/></svg>